{
    "asset" : {
        "generator" : "Khronos glTF Blender I/O v1.5.17",
        "version" : "2.0"
    },
    "scene" : 0,
    "scenes" : [
        {
            "name" : "Scene",
            "nodes" : [
                0,
                1,
                2,
                3,
                4,
                5,
                6
            ]
        }
    ],
    "nodes" : [
        {
            "name" : "Light",
            "rotation" : [
                0.16907575726509094,
                0.7558803558349609,
                -0.27217137813568115,
                0.570947527885437
            ],
            "translation" : [
                4.076245307922363,
                5.903861999511719,
                -1.0054539442062378
            ]
        },
        {
            "name" : "Camera",
            "rotation" : [
                0.483536034822464,
                0.33687159419059753,
                -0.20870360732078552,
                0.7804827094078064
            ],
            "translation" : [
                7.358891487121582,
                4.958309173583984,
                6.925790786743164
            ]
        },
        {
            "mesh" : 0,
            "name" : "Sphere"
        },
        {
            "mesh" : 1,
            "name" : "Cone",
            "rotation" : [
                -0.74129319190979,
                0,
                0.004438882227987051,
                0.6711666584014893
            ],
            "scale" : [
                0.7750738263130188,
                0.7750738263130188,
                0.7750738263130188
            ],
            "translation" : [
                -0.01696179062128067,
                0,
                -1.4417521953582764
            ]
        },
        {
            "mesh" : 2,
            "name" : "Cone.001",
            "rotation" : [
                -0.5220257639884949,
                -0.47935304045677185,
                -0.5263311266899109,
                0.4697715640068054
            ],
            "scale" : [
                0.7750738263130188,
                0.7750738263130188,
                0.7750738263130188
            ],
            "translation" : [
                1.373905062675476,
                0,
                0.06784719228744507
            ]
        },
        {
            "mesh" : 3,
            "name" : "Cone.002",
            "rotation" : [
                -0.009423741139471531,
                -0.6711514592170715,
                -0.7412465810775757,
                0.004513379652053118
            ],
            "scale" : [
                0.7750738263130188,
                0.7750738263130188,
                0.7750738263130188
            ],
            "translation" : [
                -0.01696179062128067,
                0,
                1.5265613794326782
            ]
        },
        {
            "mesh" : 4,
            "name" : "Cone.003",
            "rotation" : [
                -0.5321333408355713,
                0.4643842279911041,
                0.5161100029945374,
                0.4845741093158722
            ],
            "scale" : [
                0.7750738263130188,
                0.7750738263130188,
                0.7750738263130188
            ],
            "translation" : [
                -1.6113699674606323,
                0,
                0.016961872577667236
            ]
        }
    ],
    "materials" : [
        {
            "doubleSided" : true,
            "name" : "Material.001",
            "pbrMetallicRoughness" : {
                "metallicFactor" : 0,
                "roughnessFactor" : 0.5
            }
        },
        {
            "doubleSided" : true,
            "name" : "Material.004",
            "pbrMetallicRoughness" : {
                "metallicFactor" : 0,
                "roughnessFactor" : 0.5
            }
        },
        {
            "doubleSided" : true,
            "name" : "Material.003",
            "pbrMetallicRoughness" : {
                "metallicFactor" : 0,
                "roughnessFactor" : 0.5
            }
        },
        {
            "doubleSided" : true,
            "name" : "Material.005",
            "pbrMetallicRoughness" : {
                "metallicFactor" : 0,
                "roughnessFactor" : 0.5
            }
        },
        {
            "doubleSided" : true,
            "name" : "Material.002",
            "pbrMetallicRoughness" : {
                "metallicFactor" : 0,
                "roughnessFactor" : 0.5
            }
        }
    ],
    "meshes" : [
        {
            "name" : "Sphere",
            "primitives" : [
                {
                    "attributes" : {
                        "POSITION" : 0,
                        "NORMAL" : 1,
                        "TEXCOORD_0" : 2
                    },
                    "indices" : 3,
                    "material" : 0
                }
            ]
        },
        {
            "name" : "Cone",
            "primitives" : [
                {
                    "attributes" : {
                        "POSITION" : 4,
                        "NORMAL" : 5,
                        "TEXCOORD_0" : 6
                    },
                    "indices" : 7,
                    "material" : 1
                }
            ]
        },
        {
            "name" : "Cone.002",
            "primitives" : [
                {
                    "attributes" : {
                        "POSITION" : 8,
                        "NORMAL" : 9,
                        "TEXCOORD_0" : 10
                    },
                    "indices" : 7,
                    "material" : 2
                }
            ]
        },
        {
            "name" : "Cone.003",
            "primitives" : [
                {
                    "attributes" : {
                        "POSITION" : 11,
                        "NORMAL" : 12,
                        "TEXCOORD_0" : 13
                    },
                    "indices" : 7,
                    "material" : 3
                }
            ]
        },
        {
            "name" : "Cone.004",
            "primitives" : [
                {
                    "attributes" : {
                        "POSITION" : 14,
                        "NORMAL" : 15,
                        "TEXCOORD_0" : 16
                    },
                    "indices" : 7,
                    "material" : 4
                }
            ]
        }
    ],
    "accessors" : [
        {
            "bufferView" : 0,
            "componentType" : 5126,
            "count" : 559,
            "max" : [
                1.000000238418579,
                1,
                1.0000003576278687
            ],
            "min" : [
                -0.9999998211860657,
                -1,
                -1
            ],
            "type" : "VEC3"
        },
        {
            "bufferView" : 1,
            "componentType" : 5126,
            "count" : 559,
            "type" : "VEC3"
        },
        {
            "bufferView" : 2,
            "componentType" : 5126,
            "count" : 559,
            "type" : "VEC2"
        },
        {
            "bufferView" : 3,
            "componentType" : 5123,
            "count" : 2880,
            "type" : "SCALAR"
        },
        {
            "bufferView" : 4,
            "componentType" : 5126,
            "count" : 65,
            "max" : [
                1,
                1,
                1
            ],
            "min" : [
                -1,
                -1,
                -1
            ],
            "type" : "VEC3"
        },
        {
            "bufferView" : 5,
            "componentType" : 5126,
            "count" : 65,
            "type" : "VEC3"
        },
        {
            "bufferView" : 6,
            "componentType" : 5126,
            "count" : 65,
            "type" : "VEC2"
        },
        {
            "bufferView" : 7,
            "componentType" : 5123,
            "count" : 186,
            "type" : "SCALAR"
        },
        {
            "bufferView" : 8,
            "componentType" : 5126,
            "count" : 65,
            "max" : [
                1,
                1,
                1
            ],
            "min" : [
                -1,
                -1,
                -1
            ],
            "type" : "VEC3"
        },
        {
            "bufferView" : 9,
            "componentType" : 5126,
            "count" : 65,
            "type" : "VEC3"
        },
        {
            "bufferView" : 10,
            "componentType" : 5126,
            "count" : 65,
            "type" : "VEC2"
        },
        {
            "bufferView" : 11,
            "componentType" : 5126,
            "count" : 65,
            "max" : [
                1,
                1,
                1
            ],
            "min" : [
                -1,
                -1,
                -1
            ],
            "type" : "VEC3"
        },
        {
            "bufferView" : 12,
            "componentType" : 5126,
            "count" : 65,
            "type" : "VEC3"
        },
        {
            "bufferView" : 13,
            "componentType" : 5126,
            "count" : 65,
            "type" : "VEC2"
        },
        {
            "bufferView" : 14,
            "componentType" : 5126,
            "count" : 65,
            "max" : [
                1,
                1,
                1
            ],
            "min" : [
                -1,
                -1,
                -1
            ],
            "type" : "VEC3"
        },
        {
            "bufferView" : 15,
            "componentType" : 5126,
            "count" : 65,
            "type" : "VEC3"
        },
        {
            "bufferView" : 16,
            "componentType" : 5126,
            "count" : 65,
            "type" : "VEC2"
        }
    ],
    "bufferViews" : [
        {
            "buffer" : 0,
            "byteLength" : 6708,
            "byteOffset" : 0
        },
        {
            "buffer" : 0,
            "byteLength" : 6708,
            "byteOffset" : 6708
        },
        {
            "buffer" : 0,
            "byteLength" : 4472,
            "byteOffset" : 13416
        },
        {
            "buffer" : 0,
            "byteLength" : 5760,
            "byteOffset" : 17888
        },
        {
            "buffer" : 0,
            "byteLength" : 780,
            "byteOffset" : 23648
        },
        {
            "buffer" : 0,
            "byteLength" : 780,
            "byteOffset" : 24428
        },
        {
            "buffer" : 0,
            "byteLength" : 520,
            "byteOffset" : 25208
        },
        {
            "buffer" : 0,
            "byteLength" : 372,
            "byteOffset" : 25728
        },
        {
            "buffer" : 0,
            "byteLength" : 780,
            "byteOffset" : 26100
        },
        {
            "buffer" : 0,
            "byteLength" : 780,
            "byteOffset" : 26880
        },
        {
            "buffer" : 0,
            "byteLength" : 520,
            "byteOffset" : 27660
        },
        {
            "buffer" : 0,
            "byteLength" : 780,
            "byteOffset" : 28180
        },
        {
            "buffer" : 0,
            "byteLength" : 780,
            "byteOffset" : 28960
        },
        {
            "buffer" : 0,
            "byteLength" : 520,
            "byteOffset" : 29740
        },
        {
            "buffer" : 0,
            "byteLength" : 780,
            "byteOffset" : 30260
        },
        {
            "buffer" : 0,
            "byteLength" : 780,
            "byteOffset" : 31040
        },
        {
            "buffer" : 0,
            "byteLength" : 520,
            "byteOffset" : 31820
        }
    ],
    "buffers" : [
        {
            "byteLength" : 32340,
            "uri" : "star3.bin"
        }
    ]
}
